<svg width="1200" height="630" viewBox="0 0 1200 630" fill="none" xmlns="http://www.w3.org/2000/svg">
  <rect width="1200" height="630" fill="#070710"/>
  <rect x="48" y="48" width="1104" height="534" rx="8" fill="#0d0d1a" stroke="rgba(151,71,255,0.4)" stroke-width="2"/>
  <circle cx="910" cy="315" r="170" fill="rgba(151,71,255,0.08)"/>
  <g transform="translate(800 205)" stroke="#9747FF" fill="none">
    <path d="M110 22 A88 88 0 1 1 184.8 66" stroke-width="7" stroke-linecap="round"/>
    <path d="M110 110 Q129.8 70.4 151.8 83.6 Q173.8 99 165 125.4 Q154 154 125.4 154 Q92.4 154 77 127.6 Q59.4 96.8 81.4 74.8 Q96.8 59.4 118.8 68.2" stroke-width="6" stroke-linecap="round" opacity="0.85"/>
    <path d="M110 110 Q90.2 103.4 88 85.8 Q85.8 66 105.6 63.8 Q127.6 61.6 134.2 81.4 Q143 105.6 125.4 118.8 Q107.8 132 88 121 Q66 107.8 70.4 85.8" stroke-width="5" stroke-linecap="round" opacity="0.65"/>
    <circle cx="110" cy="110" r="11" fill="#9747FF" stroke="none"/>
  </g>
  <text x="100" y="245" fill="#ede9f7" font-family="Syne, Arial, sans-serif" font-size="96" font-weight="800">Illunium</text>
  <text x="104" y="315" fill="#9d99b5" font-family="IBM Plex Mono, monospace" font-size="30" letter-spacing="4">Community · Tools · Universum</text>
  <text x="104" y="430" fill="#c9a0ff" font-family="Outfit, Arial, sans-serif" font-size="34">Developer, Gaming und privacy-first Projekte.</text>
</svg>
