<?xml version="1.0" standalone="no"?>
<!DOCTYPE svg PUBLIC "-//W3C//DTD SVG 20010904//EN"
 "http://www.w3.org/TR/2001/REC-SVG-20010904/DTD/svg10.dtd">
<svg version="1.0" xmlns="http://www.w3.org/2000/svg"
 width="1024.000000pt" height="1024.000000pt" viewBox="0 0 1024.000000 1024.000000"
 preserveAspectRatio="xMidYMid meet">

<g transform="translate(0.000000,1024.000000) scale(0.100000,-0.100000)"
fill="#9747FF" stroke="none">
<path d="M4830 8790 c-539 -53 -1116 -257 -1560 -553 -283 -189 -536 -417
-759 -683 -318 -380 -530 -754 -681 -1204 -63 -187 -128 -512 -151 -750 -15
-160 -12 -491 6 -640 64 -551 278 -1068 627 -1518 95 -123 325 -357 443 -451
208 -167 549 -358 800 -449 241 -87 557 -159 850 -194 164 -19 583 -16 722 5
435 66 735 195 1073 465 388 308 746 825 900 1298 83 254 110 417 110 654 1
271 -54 498 -180 755 -81 162 -160 277 -289 416 -288 310 -664 505 -1078 560
-116 15 -360 6 -463 -16 -363 -80 -672 -287 -840 -563 -18 -29 -29 -56 -25
-60 3 -4 12 0 18 9 18 24 121 105 190 150 137 89 339 171 522 211 39 8 136 13
280 13 194 0 232 -3 324 -23 502 -113 898 -406 1087 -806 179 -379 190 -787
33 -1261 -49 -148 -147 -363 -210 -460 -17 -27 -48 -75 -67 -105 -214 -336
-559 -659 -871 -817 -84 -42 -243 -99 -356 -127 -537 -132 -1287 -15 -1875
290 -255 133 -430 265 -645 485 -390 399 -634 887 -729 1454 -67 397 -36 828
89 1260 214 737 701 1392 1370 1842 497 333 1102 521 1805 558 201 11 595 -23
820 -71 489 -104 916 -283 1335 -559 l29 -20 -17 24 c-34 50 -190 175 -357
288 -179 120 -517 298 -675 356 -22 8 -92 34 -155 57 -189 69 -437 129 -690
166 -121 18 -624 27 -760 14z"/>
<path d="M5420 7553 c-229 -18 -553 -108 -786 -218 -478 -227 -878 -657 -1057
-1135 -76 -203 -108 -386 -107 -608 0 -240 49 -439 156 -638 56 -104 90 -151
173 -238 115 -119 253 -206 412 -259 84 -28 179 -45 179 -31 -1 5 -22 19 -48
31 -105 50 -257 182 -346 300 -158 210 -240 467 -239 753 0 476 276 990 715
1333 546 426 1271 537 1950 298 509 -180 973 -537 1277 -981 190 -277 320
-603 382 -955 30 -174 38 -531 14 -715 -60 -481 -231 -927 -512 -1338 -35 -50
-59 -92 -54 -92 15 0 176 177 234 259 217 301 383 655 466 994 97 393 105 761
25 1152 -102 500 -410 1016 -824 1379 -232 204 -395 314 -655 441 -291 143
-613 235 -919 265 -102 9 -333 11 -436 3z"/>
<path d="M3542 7523 c-24 -9 -44 -64 -37 -99 7 -37 34 -60 83 -70 26 -5 36 -1
62 24 62 62 29 153 -56 151 -21 0 -45 -3 -52 -6z"/>
<path d="M6516 6624 c-20 -20 -20 -44 0 -72 12 -18 24 -22 52 -20 31 3 38 7
46 36 7 26 5 36 -9 52 -22 24 -67 26 -89 4z"/>
<path d="M2780 6503 c-41 -76 -114 -292 -140 -417 -107 -520 -39 -1006 200
-1421 248 -433 683 -751 1157 -846 134 -27 391 -37 516 -20 347 46 656 215
834 455 45 61 50 85 10 49 -54 -48 -223 -134 -359 -181 -193 -68 -481 -98
-695 -73 -263 32 -529 128 -738 267 -426 284 -722 824 -797 1453 -24 206 -9
534 31 706 11 44 18 81 16 83 -1 2 -17 -23 -35 -55z"/>
<path d="M4913 5779 c-135 -23 -276 -110 -363 -225 -187 -248 -168 -573 46
-792 80 -81 165 -127 292 -157 190 -46 408 24 543 173 57 65 132 210 148 290
64 313 -155 639 -474 707 -77 16 -114 17 -192 4z"/>
<path d="M5933 5569 c121 -279 153 -423 137 -622 -11 -130 -30 -219 -73 -338
-136 -374 -422 -729 -757 -939 -190 -119 -428 -213 -660 -261 -98 -20 -144
-24 -305 -24 -197 0 -265 8 -435 51 -81 20 -223 65 -282 89 -39 16 -14 -13 45
-51 246 -163 534 -253 862 -271 131 -7 288 9 444 43 774 172 1352 839 1351
1558 0 271 -84 507 -248 702 -54 64 -93 95 -79 63z"/>
<path d="M7439 5511 c-35 -28 -33 -95 4 -127 58 -50 137 -15 137 60 -1 71 -86
112 -141 67z"/>
<path d="M7460 4272 c-32 -15 -35 -22 -38 -63 -3 -41 1 -50 24 -68 58 -45 134
-15 134 53 0 48 -8 65 -41 81 -35 19 -37 19 -79 -3z"/>
<path d="M2911 3906 c-31 -33 -32 -89 -3 -119 31 -31 97 -30 123 2 66 81 -49
193 -120 117z"/>
<path d="M5416 3139 c-43 -34 -33 -99 21 -127 32 -17 57 -15 87 9 56 44 20
139 -54 139 -15 0 -39 -9 -54 -21z"/>
<path d="M6795 2859 c-53 -30 -62 -99 -20 -139 54 -50 145 -12 145 60 0 58
-76 106 -125 79z"/>
<path d="M5691 2166 c-55 -31 -65 -93 -22 -137 40 -40 100 -41 130 -3 40 50
19 113 -45 140 -39 16 -33 16 -63 0z"/>
</g>
</svg>
